<svg width="14" height="16" viewBox="0 0 14 16" fill="none" xmlns="http://www.w3.org/2000/svg">
<path fill-rule="evenodd" clip-rule="evenodd" d="M4.00273 5.10524e-10H8.89778C9.79377 -1.39386e-05 10.6665 0.285413 11.3893 0.814879C12.1121 1.34435 12.6475 2.09032 12.9177 2.94459C13.188 3.79887 13.179 4.71702 12.8922 5.56587C12.6719 6.21771 12.2966 6.80266 11.8024 7.27241C12.2037 7.57293 12.557 7.93468 12.8488 8.34547C13.2598 8.92415 13.5387 9.58605 13.6658 10.2844C13.7929 10.9827 13.7651 11.7004 13.5843 12.3868C13.4035 13.0732 13.0742 13.7115 12.6196 14.2566C12.165 14.8017 11.5962 15.2403 10.9534 15.5415C10.3107 15.8426 9.60965 15.9989 8.89985 15.9993C8.19006 15.9997 7.48883 15.8442 6.84574 15.5438C6.44664 15.3574 6.07597 15.118 5.74334 14.833L5.45165 16H0.802734L4.00273 5.10524e-10ZM4.71175 0.864865L1.8577 15.1351H4.77635L5.09041 13.8787L5.84172 13.7062C6.21572 14.1536 6.68341 14.5134 7.21176 14.7602C7.74011 15.007 8.31621 15.1348 8.89936 15.1344C9.4825 15.1341 10.0585 15.0057 10.5865 14.7583C11.1146 14.5109 11.5819 14.1505 11.9554 13.7027C12.3288 13.2548 12.5994 12.7304 12.7479 12.1665C12.8965 11.6026 12.9193 11.013 12.8149 10.4392C12.7105 9.86551 12.4813 9.32172 12.1437 8.84629C11.806 8.37087 11.368 7.97541 10.8607 7.68786L10.8252 6.95789C11.4079 6.5483 11.8449 5.96374 12.0728 5.28902C12.3008 4.61429 12.3079 3.88448 12.0931 3.20544C11.8783 2.5264 11.4528 1.93345 10.8782 1.51259C10.3037 1.09173 9.60999 0.864854 8.89778 0.864865H4.71175Z" fill="#291A15"/>
<path fill-rule="evenodd" clip-rule="evenodd" d="M5.6724 4.36513C5.6719 4.86479 5.78339 5.35821 5.99866 5.80912C6.21393 6.26003 6.52752 6.65696 6.91637 6.97073L6.87125 7.67568C6.2733 8.04318 5.77957 8.55784 5.4372 9.17052C5.09483 9.7832 4.91526 10.4734 4.91565 11.1753L4.05078 11.1757C4.05032 10.326 4.26772 9.49039 4.68222 8.74863C5.0051 8.17082 5.43918 7.66501 5.95748 7.25934C5.65723 6.94166 5.4075 6.57828 5.21818 6.18173C4.94723 5.6142 4.80691 4.99315 4.80754 4.36426L5.6724 4.36513Z" fill="#291A15"/>
</svg>
