<svg width="1299" height="919" viewBox="0 0 1299 919" fill="none" xmlns="http://www.w3.org/2000/svg">
<g filter="url(#filter0_d_1744_2645)">
<path d="M63.6008 820.886C63.8105 833.035 73.8287 842.713 85.9772 842.503L1224.56 822.849C1236.71 822.64 1246.38 812.621 1246.17 800.473L1234.08 100.116C1233.87 87.9679 1223.86 78.2896 1211.71 78.4993L73.1284 98.1532C60.98 98.3629 51.3017 108.381 51.5114 120.53L63.6008 820.886Z" fill="#F4ECE1"/>
</g>
<g filter="url(#filter1_d_1744_2645)">
<path d="M76.5365 841.092C77.17 853.226 87.5199 862.549 99.6537 861.915L1236.85 802.538C1248.99 801.904 1258.31 791.554 1257.68 779.42L1221.15 79.9125C1220.52 67.7787 1210.17 58.456 1198.04 59.0895L60.8353 118.467C48.7015 119.101 39.3788 129.451 40.0124 141.584L76.5365 841.092Z" fill="#F4ECE1"/>
</g>
<g filter="url(#filter2_d_1744_2645)">
<path fill-rule="evenodd" clip-rule="evenodd" d="M1155.08 788.958L119.72 879.339C107.615 880.395 96.9465 871.44 95.8899 859.335L35.0929 162.872C34.0363 150.767 42.9921 140.099 55.0963 139.042L1187.4 40.199C1199.5 39.1424 1210.17 48.0982 1211.23 60.2025L1263.56 659.724L1208.07 724.214L1155.08 788.958Z" fill="#F4ECE1"/>
</g>
<path d="M89.0215 165.139L1141.48 73.2659" stroke="#F4ECE1" stroke-width="3"/>
<path d="M96.4863 250.658L1148.94 158.785" stroke="#F4ECE1" stroke-width="3"/>
<path d="M103.953 336.176L1156.41 244.303" stroke="#F4ECE1" stroke-width="3"/>
<path d="M111.418 421.695L1163.87 329.823" stroke="#F4ECE1" stroke-width="3"/>
<path d="M118.883 507.215L1171.34 415.342" stroke="#F4ECE1" stroke-width="3"/>
<path d="M126.348 592.734L1178.8 500.862" stroke="#F4ECE1" stroke-width="3"/>
<path d="M133.814 678.252L1186.27 586.379" stroke="#F4ECE1" stroke-width="3"/>
<path d="M141.234 763.268L1193.69 671.395" stroke="#F4ECE1" stroke-width="3"/>
<path d="M148.744 849.291L1163.41 760.717" stroke="#F4ECE1" stroke-width="3"/>
<path d="M283.53 366.126L283.692 367.989C286.336 368.953 288.531 370.638 290.277 373.046C292.08 375.448 293.114 378.173 293.38 381.222C293.823 386.302 292.433 390.576 289.209 394.043C285.98 397.453 281.035 399.449 274.374 400.031L247.361 402.389L242.084 341.929L268.418 339.63C274.572 339.093 279.442 340.146 283.029 342.791C286.667 345.375 288.679 348.868 289.063 353.271C289.571 359.086 287.726 363.371 283.53 366.126ZM250.296 348.038L251.944 366.921L270.489 365.302C278.336 364.617 281.978 361.057 281.416 354.621C281.14 351.46 279.809 349.244 277.423 347.973C275.032 346.646 272.115 346.133 268.671 346.434L250.296 348.038ZM254.391 394.949L273.274 393.301C277.169 392.961 280.287 391.864 282.628 390.01C284.965 388.1 285.963 385.197 285.623 381.302C285.302 377.632 283.829 375.087 281.202 373.667C278.627 372.185 275.391 371.615 271.496 371.955L252.528 373.61L254.391 394.949ZM334.241 362.382L334.404 364.245C336.787 364.833 339.049 366.314 341.191 368.686C343.327 371.003 344.553 373.967 344.868 377.58C345.302 382.548 343.686 386.842 340.02 390.461C336.41 394.075 331.388 396.163 324.952 396.725C318.517 397.287 313.18 396.103 308.943 393.174C304.762 390.239 302.455 386.288 302.021 381.321C301.71 377.764 302.404 374.632 304.102 371.924C305.799 369.216 307.771 367.366 310.016 366.374L309.854 364.511C307.922 363.883 306.069 362.537 304.297 360.474C302.58 358.405 301.586 355.818 301.315 352.714C300.906 348.028 302.408 344.057 305.822 340.802C309.235 337.546 313.82 335.667 319.578 335.164C325.337 334.661 330.178 335.717 334.104 338.333C338.03 340.948 340.197 344.598 340.606 349.284C340.867 352.276 340.306 354.97 338.922 357.366C337.539 359.762 335.978 361.434 334.241 362.382ZM329.176 343.456C326.709 341.908 323.697 341.289 320.14 341.599C316.584 341.91 313.696 343.044 311.478 345.001C309.312 346.896 308.361 349.368 308.627 352.417C308.893 355.465 310.26 357.763 312.727 359.311C315.251 360.854 318.291 361.47 321.848 361.16C325.404 360.85 328.263 359.718 330.425 357.766C332.643 355.809 333.619 353.307 333.353 350.258C333.087 347.21 331.695 344.942 329.176 343.456ZM313.779 387.973C316.497 389.784 320.029 390.499 324.376 390.12C328.723 389.74 332.049 388.426 334.356 386.177C336.714 383.867 337.742 380.99 337.442 377.546C337.136 374.046 335.655 371.416 332.999 369.657C330.343 367.898 326.813 367.211 322.41 367.596C318.006 367.98 314.649 369.268 312.338 371.461C310.026 373.654 309.023 376.5 309.329 380C309.629 383.444 311.113 386.101 313.779 387.973ZM377.518 378.57L384.546 377.956C386.15 382.651 390.17 384.718 396.606 384.156C400.501 383.816 403.469 382.305 405.511 379.624C407.608 376.938 408.595 373.582 408.471 369.554L389.249 371.232L388.717 365.135L407.854 363.464C407.175 359.599 405.634 356.605 403.231 354.482C400.883 352.355 397.734 351.464 393.782 351.809C387.685 352.341 384.182 354.894 383.273 359.467L376.245 360.08C376.747 356.055 378.477 352.747 381.437 350.156C384.391 347.509 388.296 345.974 393.151 345.55C399.473 344.998 404.651 346.651 408.686 350.508C412.715 354.309 415.02 359.54 415.601 366.201C416.188 372.919 414.826 378.498 411.517 382.94C408.207 387.381 403.363 389.88 396.984 390.437C392.185 390.856 388.012 389.969 384.465 387.775C380.974 385.577 378.658 382.509 377.518 378.57ZM458.158 383.988L447.033 366.017L434.247 367.133L435.888 385.932L428.69 386.56L424.964 343.882L432.162 343.254L433.7 360.867L446.655 359.736L454.009 341.347L461.545 340.689L452.926 362.175L465.864 383.315L458.158 383.988ZM474.529 344.846C477.942 340.281 482.894 337.716 489.386 337.149C495.878 336.583 501.172 338.254 505.268 342.162C509.419 346.066 511.779 351.264 512.345 357.756C512.912 364.248 511.489 369.776 508.076 374.34C504.72 378.899 499.796 381.462 493.304 382.029C486.812 382.595 481.49 380.927 477.338 377.023C473.243 373.114 470.912 367.914 470.345 361.422C469.778 354.93 471.173 349.405 474.529 344.846ZM482.105 372C484.747 374.898 488.297 376.152 492.757 375.763C497.217 375.373 500.497 373.523 502.597 370.211C504.692 366.843 505.542 362.9 505.148 358.384C504.754 353.868 503.235 350.161 500.593 347.263C497.946 344.309 494.393 343.026 489.933 343.416C485.474 343.805 482.196 345.684 480.101 349.052C478.001 352.364 477.148 356.278 477.543 360.794C477.937 365.31 479.458 369.045 482.105 372ZM563.462 374.795L556.264 375.423L554.623 356.625L530.998 358.687L532.639 377.486L525.441 378.114L521.716 335.436L528.913 334.808L530.451 352.421L554.076 350.359L552.538 332.746L559.736 332.117L563.462 374.795ZM577.069 335.894C580.482 331.33 585.434 328.765 591.926 328.198C598.418 327.632 603.712 329.303 607.807 333.211C611.959 337.115 614.318 342.313 614.885 348.805C615.452 355.297 614.029 360.825 610.616 365.389C607.26 369.948 602.336 372.511 595.844 373.078C589.352 373.644 584.03 371.976 579.878 368.072C575.783 364.163 573.452 358.963 572.885 352.471C572.318 345.979 573.713 340.454 577.069 335.894ZM584.644 363.049C587.286 365.946 590.837 367.201 595.297 366.811C599.757 366.422 603.036 364.572 605.136 361.26C607.231 357.891 608.082 353.949 607.687 349.433C607.293 344.917 605.775 341.21 603.133 338.312C600.486 335.358 596.933 334.075 592.473 334.464C588.013 334.854 584.736 336.733 582.641 340.101C580.541 343.413 579.688 347.327 580.082 351.843C580.477 356.359 581.997 360.094 584.644 363.049ZM627.981 369.163L624.255 326.485L635.687 325.487L647.887 344.047L649.75 343.884L658.55 323.492L669.812 322.508L673.538 365.186L666.509 365.8L663.516 331.505L661.653 331.668L653.342 350.823L645.382 351.518L633.878 334.092L632.016 334.255L635.009 368.549L627.981 369.163ZM697.599 363.086L687.437 363.973L683.712 321.295L690.74 320.682L693.623 353.706L695.486 353.543L711.317 318.885L721.817 317.969L725.543 360.646L718.514 361.26L715.631 328.236L713.769 328.398L697.599 363.086ZM731.87 323.405L731.323 317.139L768.073 313.931L768.62 320.197L753.886 321.483L757.065 357.895L749.867 358.523L746.688 322.112L731.87 323.405ZM829.477 327.854L829.64 329.717C831.773 330.042 833.537 331.026 834.932 332.668C836.383 334.304 837.224 336.449 837.456 339.103C838.136 346.893 833.452 351.227 823.403 352.104L801.472 354.018L797.746 311.341L818.916 309.493C823.206 309.118 826.592 309.79 829.074 311.507C831.608 313.163 833.022 315.684 833.318 319.071C833.491 321.047 833.189 322.808 832.414 324.355C831.696 325.897 830.717 327.063 829.477 327.854ZM808.052 347.301L822.448 346.044C827.98 345.561 830.561 343.203 830.192 338.969C829.817 334.678 826.864 332.775 821.331 333.258L806.936 334.514L808.052 347.301ZM805.391 316.817L806.404 328.417L819.783 327.25C822.21 327.038 823.914 326.349 824.893 325.182C825.928 324.011 826.372 322.579 826.224 320.885C825.884 316.99 823.399 315.245 818.77 315.649L805.391 316.817ZM866.899 310.509C862.44 310.898 859.216 312.744 857.229 316.046C855.299 319.343 854.533 323.278 854.932 327.85C855.331 332.423 856.767 336.165 859.24 339.078C861.769 341.986 865.263 343.245 869.723 342.856C873.9 342.491 876.99 340.742 878.992 337.61C881.045 334.416 881.86 330.391 881.436 325.536C881.012 320.682 879.515 316.887 876.944 314.154C874.425 311.359 871.077 310.144 866.899 310.509ZM845.956 307.132L852.9 306.526L853.299 311.099L855.162 310.936C857.88 306.888 862.147 304.61 867.961 304.102C873.719 303.599 878.448 305.32 882.149 309.263C885.905 313.201 888.067 318.416 888.634 324.908C889.21 331.513 887.987 337.052 884.965 341.525C881.999 345.993 877.637 348.479 871.879 348.981C866.008 349.494 861.496 347.982 858.343 344.446L856.48 344.609L858.358 366.117L851.16 366.745L845.956 307.132ZM936.698 318.153L936.913 320.608L904.396 323.447C904.958 328.574 906.521 332.476 909.087 335.153C911.648 337.774 915.102 338.894 919.449 338.515C925.32 338.002 928.741 335.485 929.711 330.964L936.993 330.328C936.595 334.231 934.918 337.506 931.964 340.153C929.066 342.795 925.076 344.338 919.996 344.781C913.504 345.348 908.238 343.674 904.199 339.761C900.16 335.847 897.845 330.503 897.254 323.729C896.672 317.068 898.041 311.573 901.361 307.244C904.68 302.916 909.53 300.473 915.909 299.917C921.949 299.389 926.774 300.902 930.383 304.455C933.988 307.951 936.093 312.517 936.698 318.153ZM916.286 306.198C912.617 306.518 909.765 307.734 907.731 309.845C905.692 311.9 904.547 314.418 904.295 317.398L928.936 315.247C928.459 312.387 927.092 310.089 924.836 308.352C922.58 306.615 919.73 305.897 916.286 306.198ZM949.989 341.054L946.263 298.376L957.695 297.378L969.895 315.937L971.758 315.775L980.558 295.382L991.82 294.399L995.546 337.077L988.517 337.69L985.524 303.396L983.661 303.558L975.35 322.714L967.39 323.409L955.886 305.983L954.023 306.146L957.017 340.44L949.989 341.054ZM1019.52 291.981L1040.78 290.126L1044.5 332.803L1037.22 333.439L1035.75 316.588L1022.79 317.719C1021.66 317.818 1020.79 317.866 1020.16 317.863L1015.2 335.361L1007.67 336.019L1013.25 316.846C1008.66 315.142 1006.13 311.608 1005.67 306.245C1005.31 302.124 1006.3 298.824 1008.64 296.344C1011.04 293.859 1014.67 292.405 1019.52 291.981ZM1034.03 296.858L1020.82 298.011C1017.71 298.282 1015.56 299.067 1014.37 300.366C1013.17 301.665 1012.67 303.443 1012.87 305.701C1013.06 307.903 1013.86 309.512 1015.25 310.527C1016.65 311.543 1018.9 311.915 1022.01 311.644L1035.22 310.491L1034.03 296.858ZM314.79 482.83L307.592 483.458L304.414 447.046L281.127 449.079L284.306 485.491L277.108 486.119L273.383 443.441L311.064 440.152L314.79 482.83ZM345.926 442.314C341.467 442.703 338.243 444.548 336.256 447.85C334.326 451.147 333.56 455.082 333.959 459.655C334.358 464.228 335.794 467.97 338.267 470.883C340.796 473.791 344.29 475.05 348.75 474.66C352.927 474.296 356.017 472.547 358.019 469.415C360.072 466.221 360.887 462.196 360.463 457.341C360.039 452.486 358.542 448.692 355.971 445.959C353.452 443.164 350.104 441.949 345.926 442.314ZM324.983 438.937L331.927 438.331L332.326 442.903L334.189 442.741C336.907 438.692 341.174 436.414 346.988 435.907C352.746 435.404 357.475 437.124 361.176 441.068C364.932 445.006 367.094 450.221 367.661 456.713C368.237 463.318 367.014 468.857 363.992 473.33C361.026 477.798 356.664 480.284 350.906 480.786C345.035 481.299 340.523 479.787 337.37 476.251L335.507 476.414L337.385 497.922L330.187 498.55L324.983 438.937ZM390.967 476.18L380.806 477.067L377.08 434.389L384.108 433.776L386.991 466.8L388.854 466.638L404.685 431.979L415.185 431.063L418.911 473.741L411.882 474.354L409 441.33L407.137 441.492L390.967 476.18ZM484.393 444.305L484.556 446.167C486.689 446.493 488.453 447.477 489.847 449.118C491.299 450.755 492.14 452.9 492.372 455.553C493.052 463.344 488.367 467.677 478.319 468.555L456.387 470.469L452.662 427.791L473.831 425.943C478.122 425.569 481.508 426.24 483.99 427.958C486.524 429.614 487.938 432.135 488.234 435.522C488.406 437.498 488.105 439.259 487.33 440.806C486.611 442.348 485.632 443.514 484.393 444.305ZM462.968 463.751L477.363 462.495C482.896 462.012 485.477 459.653 485.107 455.42C484.733 451.129 481.779 449.225 476.247 449.708L461.852 450.965L462.968 463.751ZM460.307 433.267L461.32 444.868L474.699 443.7C477.126 443.488 478.829 442.799 479.808 441.633C480.844 440.462 481.288 439.03 481.14 437.336C480.8 433.441 478.315 431.695 473.686 432.099L460.307 433.267ZM500.872 423.583L508.07 422.955L509.312 437.181L521.082 436.153C526.219 435.705 530.279 436.602 533.262 438.844C536.301 441.082 538.016 444.43 538.405 448.89C538.799 453.406 537.696 457.057 535.095 459.844C532.546 462.57 528.703 464.156 523.565 464.605L504.598 466.261L500.872 423.583ZM509.844 443.277L511.248 459.366L522.002 458.427C525.559 458.117 528.04 457.218 529.446 455.73C530.852 454.242 531.439 452.171 531.207 449.518C530.976 446.865 530.039 444.927 528.396 443.706C526.754 442.484 524.154 442.028 520.598 442.339L509.844 443.277ZM542.788 419.924L549.985 419.296L553.711 461.973L546.513 462.602L542.788 419.924ZM583.397 416.806C589.663 416.259 594.783 417.888 598.756 421.694C602.723 425.443 604.981 430.45 605.528 436.717C606.07 442.926 604.601 448.259 601.122 452.715C597.7 457.166 592.771 459.673 586.335 460.235C579.561 460.826 574.116 459.054 570.001 454.92C565.942 450.781 563.551 444.562 562.826 436.263C562.546 433.045 562.379 430.159 562.327 427.604C562.331 425.044 562.551 422.351 562.987 419.526C563.479 416.696 564.234 414.269 565.252 412.246C566.265 410.167 567.752 408.302 569.712 406.652C571.673 405.002 574.073 403.826 576.913 403.123L588.097 400.269C589.658 399.905 590.675 399.504 591.149 399.064C591.679 398.62 591.949 397.8 591.958 396.605L598.648 396.021C598.766 398.684 598.302 400.857 597.254 402.542C596.202 404.169 594.148 405.401 591.092 406.236L578.159 409.584C574.657 410.515 572.163 412.24 570.676 414.759C569.241 417.217 568.439 420.415 568.271 424.355L570.134 424.192C571.682 421.725 573.489 419.946 575.556 418.855C577.679 417.76 580.292 417.077 583.397 416.806ZM574.896 450.397C577.585 453.177 581.159 454.373 585.619 453.983C590.078 453.594 593.363 451.8 595.473 448.601C597.634 445.341 598.528 441.565 598.153 437.275C597.779 432.985 596.247 429.449 593.559 426.669C590.926 423.884 587.38 422.687 582.921 423.076C578.461 423.465 575.148 425.262 572.982 428.466C570.872 431.665 570.004 435.409 570.379 439.699C570.753 443.99 572.259 447.556 574.896 450.397ZM618.246 418.627C621.658 414.063 626.611 411.498 633.103 410.931C639.594 410.364 644.888 412.035 648.984 415.944C653.135 419.848 655.495 425.045 656.061 431.537C656.628 438.029 655.205 443.557 651.793 448.121C648.436 452.681 643.512 455.243 637.02 455.81C630.528 456.377 625.206 454.708 621.054 450.805C616.959 446.896 614.628 441.696 614.061 435.204C613.495 428.712 614.889 423.186 618.246 418.627ZM625.821 445.781C628.463 448.679 632.013 449.933 636.473 449.544C640.933 449.155 644.213 447.304 646.313 443.992C648.408 440.624 649.258 436.682 648.864 432.166C648.47 427.649 646.952 423.942 644.309 421.045C641.663 418.09 638.109 416.808 633.65 417.197C629.19 417.586 625.912 419.465 623.817 422.833C621.717 426.145 620.865 430.059 621.259 434.575C621.653 439.092 623.174 442.827 625.821 445.781ZM686.375 412.594C681.915 412.984 678.692 414.829 676.705 418.131C674.774 421.428 674.008 425.363 674.408 429.936C674.807 434.508 676.243 438.251 678.715 441.164C681.244 444.072 684.739 445.331 689.198 444.941C693.376 444.577 696.466 442.828 698.467 439.695C700.521 436.501 701.336 432.477 700.912 427.622C700.488 422.767 698.991 418.973 696.42 416.24C693.901 413.445 690.552 412.23 686.375 412.594ZM665.432 409.218L672.375 408.612L672.775 413.184L674.637 413.022C677.356 408.973 681.622 406.695 687.437 406.188C693.195 405.685 697.924 407.405 701.624 411.349C705.381 415.287 707.543 420.502 708.109 426.994C708.686 433.599 707.463 439.138 704.441 443.611C701.475 448.079 697.112 450.565 691.354 451.067C685.483 451.58 680.971 450.068 677.819 446.532L675.956 446.695L677.833 468.203L670.636 468.831L665.432 409.218ZM756.174 420.238L756.388 422.694L723.872 425.533C724.433 430.66 725.997 434.562 728.563 437.239C731.124 439.86 734.577 440.98 738.924 440.601C744.795 440.088 748.216 437.571 749.187 433.05L756.469 432.414C756.07 436.317 754.393 439.592 751.439 442.239C748.541 444.881 744.552 446.423 739.471 446.867C732.979 447.434 727.714 445.76 723.675 441.847C719.636 437.933 717.321 432.589 716.729 425.815C716.148 419.153 717.517 413.659 720.836 409.33C724.156 405.002 729.005 402.559 735.384 402.002C741.425 401.475 746.249 402.988 749.859 406.541C753.463 410.037 755.568 414.603 756.174 420.238ZM735.762 408.283C732.093 408.604 729.241 409.819 727.207 411.931C725.168 413.986 724.022 416.504 723.77 419.483L748.412 417.332C747.935 414.473 746.568 412.175 744.312 410.438C742.055 408.701 739.205 407.983 735.762 408.283ZM808.819 397.128C815.085 396.581 820.205 398.21 824.178 402.016C828.145 405.765 830.403 410.772 830.95 417.039C831.492 423.248 830.023 428.581 826.544 433.037C823.122 437.488 818.193 439.995 811.757 440.557C804.983 441.148 799.538 439.377 795.423 435.242C791.364 431.103 788.973 424.884 788.248 416.585C787.968 413.368 787.801 410.481 787.749 407.926C787.753 405.366 787.973 402.673 788.409 399.848C788.901 397.018 789.656 394.591 790.674 392.568C791.687 390.489 793.174 388.624 795.135 386.974C797.095 385.324 799.495 384.148 802.335 383.445L813.519 380.591C815.08 380.228 816.097 379.826 816.571 379.386C817.101 378.942 817.371 378.122 817.38 376.927L824.07 376.343C824.188 379.006 823.724 381.179 822.676 382.864C821.624 384.491 819.57 385.723 816.514 386.558L803.581 389.906C800.079 390.837 797.585 392.562 796.098 395.081C794.663 397.539 793.862 400.737 793.694 404.677L795.556 404.514C797.104 402.047 798.912 400.268 800.978 399.177C803.101 398.082 805.714 397.399 808.819 397.128ZM800.318 430.719C803.007 433.499 806.581 434.695 811.041 434.305C815.501 433.916 818.785 432.122 820.895 428.923C823.056 425.663 823.95 421.887 823.575 417.597C823.201 413.307 821.669 409.771 818.981 406.991C816.348 404.206 812.802 403.009 808.343 403.398C803.883 403.787 800.57 405.584 798.404 408.788C796.294 411.987 795.426 415.731 795.801 420.022C796.175 424.312 797.681 427.878 800.318 430.719ZM838.317 437.129L837.726 430.355L839.166 430.229C842.158 429.968 844.182 428.398 845.239 425.518C846.291 422.582 846.497 417.445 845.856 410.106L844.415 393.594L877.1 390.741L880.826 433.418L873.543 434.054L870.365 397.642L851.651 399.276L852.56 409.691C853.403 419.345 852.806 426.194 850.771 430.24C848.791 434.281 845.12 436.535 839.757 437.003L838.317 437.129ZM928.183 385.172C934.506 384.62 939.718 386.327 943.818 390.292C947.913 394.201 950.242 399.373 950.804 405.808C951.365 412.244 949.971 417.769 946.619 422.385C943.263 426.944 938.424 429.5 932.101 430.051C926.23 430.564 921.297 429.117 917.303 425.712C913.365 422.301 910.888 417.711 909.872 411.941L900.134 412.791L901.775 431.59L894.662 432.21L890.937 389.533L898.049 388.912L899.587 406.525L909.579 405.653C909.769 400.005 911.491 395.304 914.747 391.55C918.059 387.791 922.538 385.665 928.183 385.172ZM921.156 420C923.741 422.903 927.207 424.165 931.554 423.785C935.901 423.406 939.096 421.563 941.14 418.256C943.178 414.892 944 410.953 943.606 406.436C943.212 401.92 941.722 398.211 939.136 395.308C936.546 392.349 933.077 391.059 928.73 391.438C924.384 391.818 921.191 393.689 919.152 397.052C917.109 400.359 916.284 404.271 916.678 408.787C917.073 413.303 918.565 417.041 921.156 420ZM1001.43 416.576L1009.31 415.889L1010.91 434.264L1003.88 434.877L1002.83 422.768L965.907 425.991L966.964 438.1L959.935 438.714L958.331 420.339L964.005 419.843C966.854 412.086 967.885 403.691 967.096 394.659L966.076 382.973L998.254 380.165L1001.43 416.576ZM994.235 417.204L991.603 387.059L973.313 388.656L973.786 394.075C974.629 403.728 973.796 412.106 971.287 419.208L994.235 417.204ZM354.99 565.648L344.829 566.535L341.104 523.857L348.132 523.243L351.015 556.268L352.878 556.105L368.709 521.447L379.209 520.53L382.934 563.208L375.906 563.822L373.023 530.797L371.16 530.96L354.99 565.648ZM392.017 562.415L391.425 555.641L392.865 555.515C395.857 555.254 397.881 553.684 398.938 550.804C399.99 547.869 400.196 542.731 399.555 535.392L398.114 518.88L430.799 516.027L434.525 558.705L427.243 559.34L424.064 522.929L405.35 524.562L406.259 534.978C407.102 544.631 406.506 551.481 404.47 555.526C402.49 559.567 398.819 561.822 393.456 562.29L392.017 562.415ZM458.523 556.61L448.361 557.497L444.636 514.819L451.664 514.206L454.547 547.23L456.41 547.067L472.241 512.409L482.741 511.493L486.466 554.17L479.438 554.784L476.555 521.76L474.692 521.922L458.523 556.61ZM561.625 547.61L554.427 548.238L551.248 511.826L527.962 513.859L531.141 550.271L523.943 550.899L520.217 508.221L557.899 504.932L561.625 547.61ZM592.761 507.093C588.301 507.483 585.078 509.328 583.091 512.63C581.16 515.927 580.395 519.862 580.794 524.435C581.193 529.007 582.629 532.75 585.101 535.663C587.631 538.57 591.125 539.83 595.585 539.44C599.762 539.076 602.852 537.327 604.854 534.194C606.907 531 607.722 526.976 607.298 522.121C606.874 517.266 605.377 513.472 602.806 510.739C600.287 507.944 596.938 506.729 592.761 507.093ZM571.818 503.717L578.762 503.111L579.161 507.683L581.024 507.521C583.742 503.472 588.008 501.194 593.823 500.687C599.581 500.184 604.31 501.904 608.01 505.848C611.767 509.786 613.929 515.001 614.496 521.493C615.072 528.098 613.849 533.637 610.827 538.11C607.861 542.578 603.499 545.063 597.741 545.566C591.87 546.079 587.358 544.567 584.205 541.031L582.342 541.194L584.22 562.702L577.022 563.33L571.818 503.717ZM627.337 504.16C630.75 499.596 635.702 497.031 642.194 496.464C648.686 495.898 653.98 497.569 658.075 501.477C662.227 505.381 664.586 510.579 665.153 517.071C665.72 523.563 664.297 529.091 660.884 533.655C657.528 538.214 652.604 540.777 646.112 541.344C639.62 541.91 634.298 540.242 630.146 536.338C626.05 532.429 623.719 527.229 623.153 520.737C622.586 514.245 623.981 508.72 627.337 504.16ZM634.912 531.315C637.554 534.212 641.105 535.467 645.565 535.077C650.024 534.688 653.304 532.838 655.404 529.526C657.499 526.157 658.349 522.215 657.955 517.699C657.561 513.183 656.043 509.476 653.401 506.578C650.754 503.624 647.201 502.341 642.741 502.73C638.281 503.12 635.004 504.999 632.909 508.367C630.809 511.679 629.956 515.593 630.35 520.109C630.744 524.625 632.265 528.36 634.912 531.315ZM715.722 527.844L723.597 527.156L725.201 545.532L718.173 546.145L717.116 534.036L680.196 537.259L681.253 549.368L674.225 549.982L672.621 531.606L678.294 531.111C681.144 523.354 682.174 514.959 681.386 505.927L680.366 494.241L712.544 491.432L715.722 527.844ZM708.524 528.472L705.893 498.327L687.602 499.924L688.076 505.343C688.918 514.996 688.085 523.374 685.577 530.475L708.524 528.472ZM746.482 548.537L739.2 549.173L746.181 527.489L724.597 490.38L732.303 489.708L747.797 516.682L749.914 516.497L759.315 487.35L766.851 486.692L746.482 548.537ZM808.52 526.057L797.395 508.087L784.608 509.203L786.249 528.001L779.052 528.63L775.326 485.952L782.524 485.324L784.061 502.937L797.017 501.806L804.371 483.416L811.907 482.759L803.288 504.245L816.225 525.385L808.52 526.057ZM818.853 488.466L818.306 482.2L855.057 478.992L855.604 485.258L840.87 486.544L844.048 522.956L836.851 523.584L833.672 487.173L818.853 488.466ZM867.313 483.212C870.726 478.648 875.678 476.083 882.17 475.516C888.662 474.949 893.956 476.62 898.051 480.529C902.203 484.432 904.562 489.63 905.129 496.122C905.696 502.614 904.273 508.142 900.86 512.706C897.504 517.266 892.58 519.828 886.088 520.395C879.596 520.962 874.274 519.293 870.122 515.39C866.026 511.481 863.695 506.281 863.129 499.789C862.562 493.297 863.957 487.771 867.313 483.212ZM874.888 510.366C877.53 513.264 881.081 514.518 885.541 514.129C890 513.74 893.28 511.889 895.38 508.577C897.475 505.209 898.326 501.267 897.931 496.751C897.537 492.234 896.019 488.527 893.377 485.63C890.73 482.675 887.177 481.393 882.717 481.782C878.257 482.171 874.98 484.05 872.885 487.418C870.785 490.73 869.932 494.644 870.326 499.16C870.72 503.677 872.241 507.412 874.888 510.366ZM946.23 490.316L946.393 492.179C948.526 492.505 950.29 493.488 951.685 495.13C953.136 496.767 953.977 498.912 954.209 501.565C954.889 509.355 950.205 513.689 940.156 514.566L918.225 516.481L914.499 473.803L935.669 471.955C939.959 471.58 943.345 472.252 945.827 473.969C948.361 475.625 949.776 478.147 950.071 481.534C950.244 483.51 949.942 485.271 949.167 486.817C948.449 488.359 947.47 489.525 946.23 490.316ZM924.805 509.763L939.201 508.506C944.733 508.023 947.314 505.665 946.945 501.431C946.57 497.141 943.617 495.237 938.085 495.72L923.689 496.976L924.805 509.763ZM922.144 479.279L923.157 490.88L936.536 489.712C938.964 489.5 940.667 488.811 941.646 487.645C942.681 486.473 943.125 485.041 942.977 483.348C942.637 479.452 940.153 477.707 935.524 478.111L922.144 479.279Z" fill="#291A15"/>
<g filter="url(#filter3_d_1744_2645)">
<path d="M1263.56 659.724L1170.6 667.839C1156.3 669.087 1145.71 681.696 1146.96 696.001L1155.08 788.958L1263.56 659.724Z" fill="#F4ECE1"/>
</g>
<defs>
<filter id="filter0_d_1744_2645" x="16.5078" y="47.4961" width="1264.67" height="834.01" filterUnits="userSpaceOnUse" color-interpolation-filters="sRGB">
<feFlood flood-opacity="0" result="BackgroundImageFix"/>
<feColorMatrix in="SourceAlpha" type="matrix" values="0 0 0 0 0 0 0 0 0 0 0 0 0 0 0 0 0 0 127 0" result="hardAlpha"/>
<feOffset dy="4"/>
<feGaussianBlur stdDeviation="17.5"/>
<feComposite in2="hardAlpha" operator="out"/>
<feColorMatrix type="matrix" values="0 0 0 0 0.170718 0 0 0 0 0.108998 0 0 0 0 0.108998 0 0 0 0.1 0"/>
<feBlend mode="normal" in2="BackgroundImageFix" result="effect1_dropShadow_1744_2645"/>
<feBlend mode="normal" in="SourceGraphic" in2="effect1_dropShadow_1744_2645" result="shape"/>
</filter>
<filter id="filter1_d_1744_2645" x="4.98242" y="28.0586" width="1287.72" height="872.887" filterUnits="userSpaceOnUse" color-interpolation-filters="sRGB">
<feFlood flood-opacity="0" result="BackgroundImageFix"/>
<feColorMatrix in="SourceAlpha" type="matrix" values="0 0 0 0 0 0 0 0 0 0 0 0 0 0 0 0 0 0 127 0" result="hardAlpha"/>
<feOffset dy="4"/>
<feGaussianBlur stdDeviation="17.5"/>
<feComposite in2="hardAlpha" operator="out"/>
<feColorMatrix type="matrix" values="0 0 0 0 0.170718 0 0 0 0 0.108998 0 0 0 0 0.108998 0 0 0 0.1 0"/>
<feBlend mode="normal" in2="BackgroundImageFix" result="effect1_dropShadow_1744_2645"/>
<feBlend mode="normal" in="SourceGraphic" in2="effect1_dropShadow_1744_2645" result="shape"/>
</filter>
<filter id="filter2_d_1744_2645" x="0.0078125" y="9.11523" width="1298.55" height="909.309" filterUnits="userSpaceOnUse" color-interpolation-filters="sRGB">
<feFlood flood-opacity="0" result="BackgroundImageFix"/>
<feColorMatrix in="SourceAlpha" type="matrix" values="0 0 0 0 0 0 0 0 0 0 0 0 0 0 0 0 0 0 127 0" result="hardAlpha"/>
<feOffset dy="4"/>
<feGaussianBlur stdDeviation="17.5"/>
<feComposite in2="hardAlpha" operator="out"/>
<feColorMatrix type="matrix" values="0 0 0 0 0.170718 0 0 0 0 0.108998 0 0 0 0 0.108998 0 0 0 0.1 0"/>
<feBlend mode="normal" in2="BackgroundImageFix" result="effect1_dropShadow_1744_2645"/>
<feBlend mode="normal" in="SourceGraphic" in2="effect1_dropShadow_1744_2645" result="shape"/>
</filter>
<filter id="filter3_d_1744_2645" x="1111.86" y="628.725" width="186.699" height="199.234" filterUnits="userSpaceOnUse" color-interpolation-filters="sRGB">
<feFlood flood-opacity="0" result="BackgroundImageFix"/>
<feColorMatrix in="SourceAlpha" type="matrix" values="0 0 0 0 0 0 0 0 0 0 0 0 0 0 0 0 0 0 127 0" result="hardAlpha"/>
<feOffset dy="4"/>
<feGaussianBlur stdDeviation="17.5"/>
<feComposite in2="hardAlpha" operator="out"/>
<feColorMatrix type="matrix" values="0 0 0 0 0.170718 0 0 0 0 0.108998 0 0 0 0 0.108998 0 0 0 0.1 0"/>
<feBlend mode="normal" in2="BackgroundImageFix" result="effect1_dropShadow_1744_2645"/>
<feBlend mode="normal" in="SourceGraphic" in2="effect1_dropShadow_1744_2645" result="shape"/>
</filter>
</defs>
</svg>
