<svg width="1299" height="910" viewBox="0 0 1299 910" fill="none" xmlns="http://www.w3.org/2000/svg">
<g filter="url(#filter0_d_1747_2631)">
<path d="M63.6008 811.884C63.8105 824.033 73.8287 833.711 85.9772 833.501L1224.56 813.847C1236.71 813.638 1246.38 803.619 1246.17 791.471L1234.08 91.1144C1233.87 78.9659 1223.86 69.2877 1211.71 69.4974L73.1284 89.1512C60.98 89.3609 51.3017 99.3792 51.5114 111.528L63.6008 811.884Z" fill="#F4ECE1"/>
</g>
<g filter="url(#filter1_d_1747_2631)">
<path d="M76.5365 832.09C77.17 844.224 87.5199 853.547 99.6537 852.913L1236.85 793.536C1248.99 792.902 1258.31 782.552 1257.68 770.418L1221.15 70.9105C1220.52 58.7767 1210.17 49.4541 1198.04 50.0876L60.8353 109.465C48.7015 110.099 39.3788 120.449 40.0124 132.583L76.5365 832.09Z" fill="#F4ECE1"/>
</g>
<g filter="url(#filter2_d_1747_2631)">
<path fill-rule="evenodd" clip-rule="evenodd" d="M1155.08 779.956L119.72 870.337C107.615 871.393 96.9465 862.438 95.8899 850.333L35.0929 153.87C34.0363 141.766 42.9921 131.097 55.0963 130.04L1187.4 31.197C1199.5 30.1404 1210.17 39.0963 1211.23 51.2005L1263.56 650.722L1208.07 715.212L1155.08 779.956Z" fill="#F4ECE1"/>
</g>
<path d="M89.0215 156.137L1141.48 64.2639" stroke="#F4ECE1" stroke-width="3"/>
<path d="M96.4863 241.656L1148.94 149.783" stroke="#F4ECE1" stroke-width="3"/>
<path d="M103.953 327.174L1156.41 235.301" stroke="#F4ECE1" stroke-width="3"/>
<path d="M111.418 412.693L1163.87 320.821" stroke="#F4ECE1" stroke-width="3"/>
<path d="M118.883 498.213L1171.34 406.34" stroke="#F4ECE1" stroke-width="3"/>
<path d="M126.348 583.732L1178.8 491.86" stroke="#F4ECE1" stroke-width="3"/>
<path d="M133.814 669.25L1186.27 577.377" stroke="#F4ECE1" stroke-width="3"/>
<path d="M141.234 754.266L1193.69 662.393" stroke="#F4ECE1" stroke-width="3"/>
<path d="M148.744 840.289L1163.41 751.715" stroke="#F4ECE1" stroke-width="3"/>
<g filter="url(#filter3_d_1747_2631)">
<path d="M1263.56 650.722L1170.6 658.837C1156.3 660.085 1145.71 672.694 1146.96 686.999L1155.08 779.956L1263.56 650.722Z" fill="#F4ECE1"/>
</g>
<defs>
<filter id="filter0_d_1747_2631" x="16.5078" y="38.4941" width="1264.67" height="834.01" filterUnits="userSpaceOnUse" color-interpolation-filters="sRGB">
<feFlood flood-opacity="0" result="BackgroundImageFix"/>
<feColorMatrix in="SourceAlpha" type="matrix" values="0 0 0 0 0 0 0 0 0 0 0 0 0 0 0 0 0 0 127 0" result="hardAlpha"/>
<feOffset dy="4"/>
<feGaussianBlur stdDeviation="17.5"/>
<feComposite in2="hardAlpha" operator="out"/>
<feColorMatrix type="matrix" values="0 0 0 0 0.170718 0 0 0 0 0.108998 0 0 0 0 0.108998 0 0 0 0.1 0"/>
<feBlend mode="normal" in2="BackgroundImageFix" result="effect1_dropShadow_1747_2631"/>
<feBlend mode="normal" in="SourceGraphic" in2="effect1_dropShadow_1747_2631" result="shape"/>
</filter>
<filter id="filter1_d_1747_2631" x="4.98242" y="19.0566" width="1287.72" height="872.887" filterUnits="userSpaceOnUse" color-interpolation-filters="sRGB">
<feFlood flood-opacity="0" result="BackgroundImageFix"/>
<feColorMatrix in="SourceAlpha" type="matrix" values="0 0 0 0 0 0 0 0 0 0 0 0 0 0 0 0 0 0 127 0" result="hardAlpha"/>
<feOffset dy="4"/>
<feGaussianBlur stdDeviation="17.5"/>
<feComposite in2="hardAlpha" operator="out"/>
<feColorMatrix type="matrix" values="0 0 0 0 0.170718 0 0 0 0 0.108998 0 0 0 0 0.108998 0 0 0 0.1 0"/>
<feBlend mode="normal" in2="BackgroundImageFix" result="effect1_dropShadow_1747_2631"/>
<feBlend mode="normal" in="SourceGraphic" in2="effect1_dropShadow_1747_2631" result="shape"/>
</filter>
<filter id="filter2_d_1747_2631" x="0.0078125" y="0.113281" width="1298.55" height="909.309" filterUnits="userSpaceOnUse" color-interpolation-filters="sRGB">
<feFlood flood-opacity="0" result="BackgroundImageFix"/>
<feColorMatrix in="SourceAlpha" type="matrix" values="0 0 0 0 0 0 0 0 0 0 0 0 0 0 0 0 0 0 127 0" result="hardAlpha"/>
<feOffset dy="4"/>
<feGaussianBlur stdDeviation="17.5"/>
<feComposite in2="hardAlpha" operator="out"/>
<feColorMatrix type="matrix" values="0 0 0 0 0.170718 0 0 0 0 0.108998 0 0 0 0 0.108998 0 0 0 0.1 0"/>
<feBlend mode="normal" in2="BackgroundImageFix" result="effect1_dropShadow_1747_2631"/>
<feBlend mode="normal" in="SourceGraphic" in2="effect1_dropShadow_1747_2631" result="shape"/>
</filter>
<filter id="filter3_d_1747_2631" x="1111.86" y="619.723" width="186.699" height="199.234" filterUnits="userSpaceOnUse" color-interpolation-filters="sRGB">
<feFlood flood-opacity="0" result="BackgroundImageFix"/>
<feColorMatrix in="SourceAlpha" type="matrix" values="0 0 0 0 0 0 0 0 0 0 0 0 0 0 0 0 0 0 127 0" result="hardAlpha"/>
<feOffset dy="4"/>
<feGaussianBlur stdDeviation="17.5"/>
<feComposite in2="hardAlpha" operator="out"/>
<feColorMatrix type="matrix" values="0 0 0 0 0.170718 0 0 0 0 0.108998 0 0 0 0 0.108998 0 0 0 0.1 0"/>
<feBlend mode="normal" in2="BackgroundImageFix" result="effect1_dropShadow_1747_2631"/>
<feBlend mode="normal" in="SourceGraphic" in2="effect1_dropShadow_1747_2631" result="shape"/>
</filter>
</defs>
</svg>
