<svg width="106" height="167" viewBox="0 0 106 167" fill="none" xmlns="http://www.w3.org/2000/svg">
<path fill-rule="evenodd" clip-rule="evenodd" d="M58.994 163.391C86.2128 160.128 105.633 135.417 102.369 108.198C99.1063 80.9794 74.3958 61.5596 47.177 64.8228C19.9582 68.0859 0.538306 92.7964 3.80148 120.015C7.06466 147.234 31.7752 166.654 58.994 163.391ZM59.3511 166.369C88.2149 162.909 108.809 136.705 105.348 107.841C101.888 78.9773 75.6837 58.3837 46.8199 61.8441C17.956 65.3045 -2.63759 91.5085 0.82281 120.372C4.28321 149.236 30.4872 169.83 59.3511 166.369Z" fill="#291A15"/>
<path fill-rule="evenodd" clip-rule="evenodd" d="M75.4326 0.242368C76.5221 0.423958 77.2582 1.45441 77.0766 2.54395C72.9412 27.3564 70.8486 51.4781 69.6957 76.7773C68.9002 94.2353 67.8053 111.652 66.6764 129.069C66.649 129.492 66.6644 130.326 66.6864 131.52C66.6936 131.912 66.7016 132.342 66.7089 132.809C66.7375 134.617 66.7517 136.829 66.6444 139.013C66.5383 141.174 66.3091 143.419 65.8119 145.255C65.5634 146.173 65.223 147.086 64.7316 147.86C64.2388 148.635 63.504 149.406 62.4329 149.763C61.2884 150.145 60.382 149.498 60.1214 149.3C59.7368 149.008 59.3927 148.624 59.1005 148.259C58.4989 147.506 57.808 146.433 57.0571 145.149C55.5416 142.557 53.6179 138.82 51.4402 134.34C47.0778 125.366 41.6181 113.248 36.2324 100.963C25.4637 76.3992 14.9376 51.0469 13.9915 48.6088C13.5919 47.5791 14.1027 46.4204 15.1325 46.0208C16.1622 45.6212 17.321 46.132 17.7206 47.1617C18.6341 49.5159 29.1316 74.8034 39.8958 99.3568C45.2765 111.63 50.7107 123.69 55.0377 132.592C57.2047 137.049 59.0745 140.675 60.5101 143.13C60.9623 143.903 61.3559 144.533 61.6891 145.024C61.7779 144.794 61.8661 144.523 61.9508 144.21C62.3344 142.793 62.5475 140.89 62.6493 138.817C62.7499 136.767 62.7377 134.66 62.7094 132.872C62.7035 132.499 62.6966 132.131 62.6899 131.776C62.6662 130.513 62.6455 129.415 62.6848 128.81C63.8136 111.394 64.9062 94.0114 65.6999 76.5952C66.8576 51.1903 68.9618 26.9015 73.131 1.88636C73.3126 0.796817 74.343 0.0607779 75.4326 0.242368Z" fill="#291A15"/>
</svg>
