<svg width="118" height="253" viewBox="0 0 118 253" fill="none" xmlns="http://www.w3.org/2000/svg">
<path d="M32.1701 239.937C45.9706 243.076 59.6988 234.435 62.8381 220.634L104.929 35.6021C107.196 25.6337 100.955 15.7139 90.9867 13.4463C81.0183 11.1787 71.0991 17.4214 68.8315 27.3899L57.1304 24.7281C60.868 8.29738 77.2177 -1.99241 93.6485 1.74522C110.079 5.48286 120.368 21.8322 116.63 38.2629L74.5392 223.297C69.9298 243.56 49.7712 256.248 29.5083 251.638C9.54547 247.097 -3.06765 227.457 0.97089 207.5L21.804 115.888L33.5051 118.55L12.8662 209.265C9.72691 223.065 18.3695 236.798 32.1701 239.937Z" fill="#FC4A27"/>
</svg>
